M48
; DRILL file {KiCad 9.0.1} date 2025-04-08T14:58:32+0530
; FORMAT={-:-/ absolute / inch / decimal}
; #@! TF.CreationDate,2025-04-08T14:58:32+05:30
; #@! TF.GenerationSoftware,Kicad,Pcbnew,9.0.1
; #@! TF.FileFunction,Plated,1,2,Blind
FMAT,2
INCH
; #@! TA.AperFunction,Plated,Buried,ViaDrill
T1C0.0118
%
G90
G05
T1
X1.31Y-1.2862
X1.378Y-1.898
X1.41Y-1.188
X1.54Y-2.14
X1.5412Y-2.0612
X1.552Y-1.56
X1.61Y-1.57
X1.652Y-1.704
X1.668Y-1.6
X1.688Y-1.11
X1.94Y-1.47
X2.046Y-2.364
X2.052Y-1.3375
X2.092Y-1.71
X2.114Y-1.112
X2.24Y-2.182
X2.288Y-1.484
X2.32Y-1.954
X2.382Y-2.382
X2.382Y-2.532
X2.42Y-1.1
X2.526Y-2.44
X2.53Y-0.916
X2.532Y-1.064
X2.562Y-1.744
X2.726Y-2.018
X2.728Y-1.992
X2.728Y-2.044
X2.732Y-1.916
X2.81Y-1.58
X2.93Y-1.218
X3.05Y-1.4
X3.168Y-2.0
X3.226Y-2.262
X3.36Y-1.122
X3.382Y-2.16
X3.394Y-2.37
X3.468Y-1.292
X3.566Y-1.95
X3.758Y-2.0
X3.782Y-1.13
X3.82Y-2.306
X4.158Y-2.204
X4.16Y-1.006
X4.16Y-1.7072
X4.162Y-1.106
X4.162Y-1.306
X4.162Y-1.406
X4.162Y-1.508
X4.162Y-1.806
X4.162Y-1.906
X4.162Y-2.008
X4.164Y-1.206
X4.164Y-1.606
X4.164Y-2.106
X4.164Y-2.308
M30
