M48
; DRILL file {KiCad 9.0.1} date 2025-04-08T14:58:32+0530
; FORMAT={-:-/ absolute / inch / decimal}
; #@! TF.CreationDate,2025-04-08T14:58:32+05:30
; #@! TF.GenerationSoftware,Kicad,Pcbnew,9.0.1
; #@! TF.FileFunction,Plated,1,4,PTH
FMAT,2
INCH
; #@! TA.AperFunction,Plated,PTH,ViaDrill
T1C0.0118
; #@! TA.AperFunction,Plated,PTH,ComponentDrill
T2C0.0394
; #@! TA.AperFunction,Plated,PTH,ComponentDrill
T3C0.1260
%
G90
G05
T1
X1.294Y-1.628
X1.446Y-1.778
X1.475Y-1.09
X1.514Y-1.586
X1.538Y-1.698
X1.54Y-1.9
X1.5855Y-1.704
X1.758Y-1.98
X1.782Y-1.624
X1.874Y-1.726
X1.877Y-1.666
X1.942Y-1.666
X1.962Y-1.046
X1.966Y-1.836
X2.0465Y-2.235
X2.0956Y-1.5525
X2.0956Y-1.6155
X2.1625Y-1.4255
X2.1625Y-1.9344
X2.194Y-1.426
X2.2489Y-1.11
X2.266Y-1.426
X2.29Y-1.33
X2.348Y-2.21
X2.35Y-1.302
X2.35Y-1.354
X2.352Y-1.466
X2.365Y-1.26
X2.42Y-1.0395
X2.428Y-2.202
X2.43Y-1.26
X2.4775Y-1.4856
X2.502Y-2.204
X2.518Y-1.412
X2.528Y-1.96
X2.528Y-1.96
X2.5296Y-1.3596
X2.54Y-1.554
X2.566Y-1.312
X2.572Y-2.06
X2.626Y-1.218
X2.6272Y-0.9152
X2.6272Y-1.0648
X2.688Y-2.066
X2.698Y-1.946
X2.7028Y-1.0528
X2.82Y-0.9072
X2.854Y-2.135
X2.87Y-1.22
X2.91Y-1.758
X2.91Y-1.826
X2.938Y-1.052
X2.94Y-0.994
X2.97Y-1.645
X2.9754Y-1.8632
X2.9754Y-1.8888
X2.9754Y-2.0424
X3.0281Y-1.594
X3.048Y-1.9395
X3.0526Y-1.3
X3.0526Y-1.35
X3.078Y-1.594
X3.09Y-1.926
X3.16Y-1.3
X3.16Y-1.354
X3.1677Y-1.85
X3.1677Y-1.9
X3.1677Y-1.95
X3.22Y-1.12
X3.22Y-1.594
X3.2474Y-1.3
X3.2474Y-1.35
X3.3626Y-1.9
X3.3626Y-1.95
X3.366Y-1.644
X3.39Y-1.375
X3.39Y-1.44
X3.391Y-1.723
X3.55Y-2.158
X3.5651Y-1.85
X3.5651Y-2.0
X3.5777Y-1.415
X3.644Y-1.756
X3.7Y-1.334
X3.76Y-1.85
X3.7726Y-1.265
X3.788Y-1.522
T2
X1.86Y-0.92
X1.96Y-0.92
X2.06Y-0.92
X2.16Y-0.92
X2.26Y-0.92
X4.062Y-1.006
X4.062Y-1.106
X4.062Y-1.206
X4.062Y-1.306
X4.062Y-1.406
X4.062Y-1.506
X4.062Y-1.606
X4.062Y-1.706
X4.062Y-1.806
X4.062Y-1.906
X4.062Y-2.006
X4.062Y-2.106
X4.062Y-2.206
X4.062Y-2.306
X4.162Y-1.006
X4.162Y-1.106
X4.162Y-1.206
X4.162Y-1.306
X4.162Y-1.406
X4.162Y-1.506
X4.162Y-1.606
X4.162Y-1.706
X4.162Y-1.806
X4.162Y-1.906
X4.162Y-2.006
X4.162Y-2.106
X4.162Y-2.206
X4.162Y-2.306
T3
X1.2957Y-0.8945
X1.2957Y-0.8945
X1.2985Y-2.5023
X4.35Y-2.5
X4.35Y-2.5
X4.3635Y-0.8977
X4.3635Y-0.8977
X4.3635Y-0.8977
X4.3635Y-0.8977
M30
